/* XPM */
static char * closepr_xpm[] = {
"23 23 54 1",
" 	c #262626",
".	c #383838",
"+	c #181A1E",
"@	c #1F2227",
"#	c #010201",
"$	c #010202",
"%	c #202328",
"&	c #020203",
"*	c #424853",
"=	c #424752",
"-	c #343842",
";	c #212429",
">	c #020304",
",	c #414651",
"'	c #343841",
")	c #404550",
"!	c #333740",
"~	c #30343C",
"{	c #2F333B",
"]	c #32373F",
"^	c #31353D",
"/	c #22242A",
"(	c #040405",
"_	c #3F444F",
":	c #32363E",
"<	c #262A30",
"[	c #2B2F36",
"}	c #030405",
"|	c #3E444E",
"1	c #26292F",
"2	c #070809",
"3	c #22252B",
"4	c #050506",
"5	c #2E3139",
"6	c #1D1F24",
"7	c #060708",
"8	c #1E2025",
"9	c #000000",
"0	c #3A3E48",
"a	c #2C3037",
"b	c #25282E",
"c	c #393E47",
"d	c #282B32",
"e	c #383D46",
"f	c #2A2E35",
"g	c #2A2D34",
"h	c #1E2126",
"i	c #0E0F11",
"j	c #292C33",
"k	c #373C45",
"l	c #363B44",
"m	c #16171B",
"n	c #363A43",
"o	c #252525",
"                       ",
".......................",
"+++++++++++++++++++++++",
"@@@@@@@@@@@@@@@@@@@@@@@",
"@@@#$$$#$$$$#$$$$$#$@@@",
"%%&*****************$%%",
"%%&=---------------=&%%",
";;>,----''---''----,>;;",
";;>)''!~**{]~**^!'')>;;",
"//(_]]:<***[***<:]]_(//",
"//}|::^12*****21^::|(//",
"334|:::567***765:::|(33",
"8890aaa[b*****b[aaa0988",
"889c[[[d***9***d[[[c988",
"889efggh**$i$**@jggk988",
"889lggjh(&m3m&(hjggl988",
"889njjj<861d168<jjjn988",
"889nnnnn''nnn''nnnnn988",
"88899999999999999999888",
"88888888888888888888888",
"+++++++++++++++++++++++",
".......................",
"ooooooooooooooooooooooo"};
