/* XPM */
static char * closefcs_xpm[] = {
"23 23 55 1",
" 	c #262626",
".	c #383838",
"+	c #181A1E",
"@	c #1F2227",
"#	c #010201",
"$	c #010202",
"%	c #202328",
"&	c #020203",
"*	c #424853",
"=	c #424752",
"-	c #343842",
";	c #212429",
">	c #020304",
",	c #414651",
"'	c #343841",
")	c #404550",
"!	c #333740",
"~	c #30343C",
"{	c #FEFEFE",
"]	c #2F333B",
"^	c #32373F",
"/	c #31353D",
"(	c #22242A",
"_	c #040405",
":	c #3F444F",
"<	c #32363E",
"[	c #262A30",
"}	c #2B2F36",
"|	c #030405",
"1	c #3E444E",
"2	c #26292F",
"3	c #070809",
"4	c #22252B",
"5	c #050506",
"6	c #2E3139",
"7	c #1D1F24",
"8	c #060708",
"9	c #1E2025",
"0	c #000000",
"a	c #3A3E48",
"b	c #2C3037",
"c	c #25282E",
"d	c #393E47",
"e	c #282B32",
"f	c #383D46",
"g	c #2A2E35",
"h	c #2A2D34",
"i	c #1E2126",
"j	c #0E0F11",
"k	c #292C33",
"l	c #373C45",
"m	c #363B44",
"n	c #16171B",
"o	c #363A43",
"p	c #252525",
"                       ",
".......................",
"+++++++++++++++++++++++",
"@@@@@@@@@@@@@@@@@@@@@@@",
"@@@#$$$#$$$$#$$$$$#$@@@",
"%%&*****************$%%",
"%%&=---------------=&%%",
";;>,----''---''----,>;;",
";;>)''!~{{]^~{{/!'')>;;",
"((_:^^<[{{{}{{{[<^^:_((",
"((|1<</23{{{{{32/<<1_((",
"4451<<<678{{{876<<<1_44",
"990abbb}c{{{{{c}bbba099",
"990d}}}e{{{0{{{e}}}d099",
"990fghhi{{$j${{@khhl099",
"990mhhki_&n4n&_ikhhm099",
"990okkk[972e279[kkko099",
"990ooooo''ooo''ooooo099",
"99900000000000000000999",
"99999999999999999999999",
"+++++++++++++++++++++++",
".......................",
"ppppppppppppppppppppppp"};
