/* XPM */
static char * closeufcs_xpm[] = {
"23 23 59 1",
" 	c #262626",
".	c #383838",
"+	c #1E1E1E",
"@	c #272727",
"#	c #020201",
"$	c #020202",
"%	c #010202",
"&	c #282828",
"*	c #030303",
"=	c #535353",
"-	c #030302",
";	c #030203",
">	c #525252",
",	c #424242",
"'	c #292929",
")	c #040404",
"!	c #515151",
"~	c #414242",
"{	c #414141",
"]	c #424142",
"^	c #505050",
"/	c #404040",
"(	c #3C3C3C",
"_	c #A5A5A5",
":	c #3B3B3B",
"<	c #3F3F3F",
"[	c #3D3D3D",
"}	c #2A2A2A",
"|	c #050505",
"1	c #4F4F4F",
"2	c #3E3E3E",
"3	c #303030",
"4	c #363636",
"5	c #040505",
"6	c #4E4E4E",
"7	c #2F2F2F",
"8	c #090909",
"9	c #2B2B2B",
"0	c #060606",
"a	c #393939",
"b	c #242424",
"c	c #080808",
"d	c #050605",
"e	c #252525",
"f	c #000000",
"g	c #484848",
"h	c #373737",
"i	c #2E2E2E",
"j	c #474747",
"k	c #323232",
"l	c #464646",
"m	c #353535",
"n	c #343434",
"o	c #111111",
"p	c #333333",
"q	c #454545",
"r	c #444444",
"s	c #1B1B1B",
"t	c #434343",
"                       ",
".......................",
"+++++++++++++++++++++++",
"@@@@@@@@@@@@@@@@@@@@@@@",
"@@@#$$$#$$$%#$%%$%#$@@@",
"&&*=================-&&",
"&&;>,,,,,,,,,,,,,,,>*&&",
"'')!~~,,{{,],{{,,]~!)''",
"'')^{{/(__:<(__[/{{^)''",
"}}|1<<23___4___32<<1|}}",
"}}5622[78_____87[226|}}",
"9906222abc___cba2226d99",
"eefghhh4i_____i4hhhgfee",
"eefj444k___f___k444jfee",
"eeflmnn __$o$__@pnnqfee",
"eefrnnp |*s9s*| pnnrfee",
"eeftppp3eb7k7be3ppptfee",
"eefttttt{{ttt{{tttttfee",
"eeefffffffffffffffffeee",
"eeeeeeeeeeeeeeeeeeeeeee",
"+++++++++++++++++++++++",
".......................",
"eeeeeeeeeeeeeeeeeeeeeee"};
