/* XPM */
static char * maxfcs_xpm[] = {
"23 23 52 1",
" 	c #262626",
".	c #383838",
"+	c #181A1E",
"@	c #1F2227",
"#	c #010202",
"$	c #020102",
"%	c #010201",
"&	c #202328",
"*	c #020203",
"=	c #424853",
"-	c #424752",
";	c #343842",
">	c #212429",
",	c #020304",
"'	c #414651",
")	c #343841",
"!	c #3F444F",
"~	c #333740",
"{	c #31353D",
"]	c #FEFEFE",
"^	c #30343C",
"/	c #404550",
"(	c #22242A",
"_	c #040305",
":	c #32373F",
"<	c #32363E",
"[	c #26292F",
"}	c #030405",
"|	c #3E444E",
"1	c #23262C",
"2	c #040405",
"3	c #050506",
"4	c #22252B",
"5	c #24272D",
"6	c #1A1C20",
"7	c #1E2025",
"8	c #000000",
"9	c #3A3E48",
"0	c #2C3037",
"a	c #2B2F36",
"b	c #1E2126",
"c	c #2A2D34",
"d	c #393E47",
"e	c #2A2E35",
"f	c #1D1F24",
"g	c #292C33",
"h	c #373C45",
"i	c #363B44",
"j	c #363A43",
"k	c #262A30",
"l	c #1C1E23",
"m	c #252525",
"                       ",
".......................",
"+++++++++++++++++++++++",
"@@@@@@@@@@@@@@@@@@@@@@@",
"@@@####$#####%##$###@@@",
"&&*=================#&&",
"&&*-;;;;;;;;;;;;;;;-*&&",
">>,';;;;)))))));;;;'*>>",
">>,!))~{]]]]]]]^~))/,>>",
"((_!::<[]]]]]]][<::!}((",
"((}|<<{1]23332]1{<<|2((",
"443|<<{5]64146]5{<<|344",
"778900ab]7cac7]ba009877",
"778daaeb]fgegf]beaad877",
"778hcccf]]]]]]]fcech877",
"778iccgb2222222bgeci877",
"778jgggk7lllll7kgggj877",
"778jjjjj)))))))jjjjj877",
"77788888888888888888777",
"77777777777777777777777",
"+++++++++++++++++++++++",
".......................",
"mmmmmmmmmmmmmmmmmmmmmmm"};
