/* XPM */
static char * maxpr_xpm[] = {
"23 23 51 1",
" 	c #262626",
".	c #383838",
"+	c #181A1E",
"@	c #1F2227",
"#	c #010202",
"$	c #020102",
"%	c #010201",
"&	c #202328",
"*	c #020203",
"=	c #424853",
"-	c #424752",
";	c #343842",
">	c #212429",
",	c #020304",
"'	c #414651",
")	c #343841",
"!	c #3F444F",
"~	c #333740",
"{	c #31353D",
"]	c #30343C",
"^	c #404550",
"/	c #22242A",
"(	c #040305",
"_	c #32373F",
":	c #32363E",
"<	c #26292F",
"[	c #030405",
"}	c #3E444E",
"|	c #23262C",
"1	c #040405",
"2	c #050506",
"3	c #22252B",
"4	c #24272D",
"5	c #1A1C20",
"6	c #1E2025",
"7	c #000000",
"8	c #3A3E48",
"9	c #2C3037",
"0	c #2B2F36",
"a	c #1E2126",
"b	c #2A2D34",
"c	c #393E47",
"d	c #2A2E35",
"e	c #1D1F24",
"f	c #292C33",
"g	c #373C45",
"h	c #363B44",
"i	c #363A43",
"j	c #262A30",
"k	c #1C1E23",
"l	c #252525",
"                       ",
".......................",
"+++++++++++++++++++++++",
"@@@@@@@@@@@@@@@@@@@@@@@",
"@@@####$#####%##$###@@@",
"&&*=================#&&",
"&&*-;;;;;;;;;;;;;;;-*&&",
">>,';;;;)))))));;;;'*>>",
">>,!))~{=======]~))^,>>",
"//(!__:<=======<:__![//",
"//[}::{|=12221=|{::}1//",
"332}::{4=53|35=4{::}233",
"6678990a=6b0b6=a0998766",
"667c00da=efdfe=ad00c766",
"667gbbbe=======ebdbg766",
"667hbbfa1111111afdbh766",
"667ifffj6kkkkk6jfffi766",
"667iiiii)))))))iiiii766",
"66677777777777777777666",
"66666666666666666666666",
"+++++++++++++++++++++++",
".......................",
"lllllllllllllllllllllll"};
