/* XPM */
static char * maxufcs_xpm[] = {
"23 23 56 1",
" 	c #262626",
".	c #383838",
"+	c #1E1E1E",
"@	c #272727",
"#	c #020202",
"$	c #010202",
"%	c #020102",
"&	c #020201",
"*	c #282828",
"=	c #020303",
"-	c #535353",
";	c #030302",
">	c #030303",
",	c #525252",
"'	c #424242",
")	c #292929",
"!	c #040404",
"~	c #515151",
"{	c #414242",
"]	c #414141",
"^	c #040403",
"/	c #040304",
"(	c #4F4F4F",
"_	c #404040",
":	c #3D3D3D",
"<	c #A5A5A5",
"[	c #3C3C3C",
"}	c #505050",
"|	c #2A2A2A",
"1	c #050405",
"2	c #3F3F3F",
"3	c #3E3E3E",
"4	c #2F2F2F",
"5	c #040505",
"6	c #4E4E4E",
"7	c #2C2C2C",
"8	c #050505",
"9	c #060606",
"0	c #2B2B2B",
"a	c #2D2D2D",
"b	c #202020",
"c	c #252525",
"d	c #000000",
"e	c #484848",
"f	c #373737",
"g	c #363636",
"h	c #343434",
"i	c #474747",
"j	c #353535",
"k	c #242424",
"l	c #333333",
"m	c #454545",
"n	c #444444",
"o	c #434343",
"p	c #303030",
"q	c #232323",
"                       ",
".......................",
"+++++++++++++++++++++++",
"@@@@@@@@@@@@@@@@@@@@@@@",
"@@@#$##%##$##&##%###@@@",
"**=-----------------;**",
"**>,''''''''''''''',=**",
"))!~'{'']]]]]]]''''~^))",
"))/(]]_:<<<<<<<[_]]}!))",
"||1(2234<<<<<<<4322(5||",
"||5633:7<89998<7:3368||",
"009633:a<b070b<a:336900",
"ccdeffg <chghc< gffedcc",
"ccdiggj <kljlk< jggidcc",
"ccdmhhhk<<<<<<<khjhmdcc",
"ccdnhhl 8888888 ljhndcc",
"ccdolllpcqqqqqcplllodcc",
"ccdooooo]]]]]]]ooooodcc",
"cccdddddddddddddddddccc",
"ccccccccccccccccccccccc",
"+++++++++++++++++++++++",
".......................",
"ccccccccccccccccccccccc"};
