/* XPM */
static char * minfcs_xpm[] = {
"23 23 48 1",
" 	c #262626",
".	c #383838",
"+	c #181A1E",
"@	c #1F2227",
"#	c #010201",
"$	c #010202",
"%	c #020102",
"&	c #202328",
"*	c #020203",
"=	c #424853",
"-	c #424752",
";	c #343842",
">	c #212429",
",	c #020304",
"'	c #414651",
")	c #343841",
"!	c #404550",
"~	c #333740",
"{	c #3F444F",
"]	c #22242A",
"^	c #040405",
"/	c #32373F",
"(	c #040305",
"_	c #3E444E",
":	c #32363E",
"<	c #22252B",
"[	c #050506",
"}	c #1E2025",
"|	c #000000",
"1	c #3A3E48",
"2	c #2C3037",
"3	c #2B2F36",
"4	c #393E47",
"5	c #282B32",
"6	c #FEFEFE",
"7	c #272A31",
"8	c #373C45",
"9	c #2A2E35",
"0	c #2A2D34",
"a	c #1E2126",
"b	c #363B44",
"c	c #292C33",
"d	c #010101",
"e	c #363A43",
"f	c #262A30",
"g	c #1D1F24",
"h	c #1B1D22",
"i	c #252525",
"                       ",
".......................",
"+++++++++++++++++++++++",
"@@@@@@@@@@@@@@@@@@@@@@@",
"@@@#$%$$$#$$$$$$$$$$@@@",
"&&*=================*&&",
"&&*-;;;;;;;;;;;;;;;-*&&",
">>,');;;;;;;;;));))',>>",
">>*!)))))~))))))~~){,>>",
"]]^{///////////////{(]]",
"]]^_:::::::::::::::_^]]",
"<<[_:::::::::::::::_[<<",
"}}|12222333333322221|}}",
"}}|43335666666673334|}}",
"}}|8900@6666666a0908|}}",
"}}|b00ca^d|||d^acc0b|}}",
"}}|ecccfghhhhhgfccce|}}",
"}}|eeeee)))))))eeeee|}}",
"}}}|||||||||||||||||}}}",
"}}}}}}}}}}}}}}}}}}}}}}}",
"+++++++++++++++++++++++",
".......................",
"iiiiiiiiiiiiiiiiiiiiiii"};
