/* XPM */
static char * minufcs_xpm[] = {
"23 23 52 1",
" 	c #262626",
".	c #383838",
"+	c #1E1E1E",
"@	c #272727",
"#	c #020201",
"$	c #020202",
"%	c #020102",
"&	c #010201",
"*	c #010202",
"=	c #282828",
"-	c #030303",
";	c #535353",
">	c #525252",
",	c #424242",
"'	c #292929",
")	c #040404",
"!	c #515151",
"~	c #424241",
"{	c #424142",
"]	c #040304",
"^	c #040403",
"/	c #505050",
"(	c #414141",
"_	c #404040",
":	c #4F4F4F",
"<	c #2A2A2A",
"[	c #050505",
"}	c #3F3F3F",
"|	c #050405",
"1	c #4E4E4E",
"2	c #3E3E3E",
"3	c #2B2B2B",
"4	c #060606",
"5	c #252525",
"6	c #000000",
"7	c #484848",
"8	c #373737",
"9	c #363636",
"0	c #474747",
"a	c #323232",
"b	c #A5A5A5",
"c	c #313131",
"d	c #454545",
"e	c #353535",
"f	c #343434",
"g	c #444444",
"h	c #333333",
"i	c #010101",
"j	c #434343",
"k	c #303030",
"l	c #242424",
"m	c #222222",
"                       ",
".......................",
"+++++++++++++++++++++++",
"@@@@@@@@@@@@@@@@@@@@@@@",
"@@@#$%$$$&*$$$$$$*$$@@@",
"==-;;;;;;;;;;;;;;;;;-==",
"==->,,,,,,,,,,,,,,,>-==",
"'')!~{,,,{,,,,~~,~~!]''",
"''^/(((((_((((((__(:)''",
"<<[:}}}}}}}}}}}}}}}:|<<",
"<<[12222222222222221[<<",
"33412222222222222221433",
"55678888999999988887655",
"5560999abbbbbbbc9990655",
"556deff@bbbbbbb fefd655",
"556gffh [i666i[ hhfg655",
"556jhhhklmmmmmlkhhhj655",
"556jjjjj(((((((jjjjj655",
"55566666666666666666555",
"55555555555555555555555",
"+++++++++++++++++++++++",
".......................",
"55555555555555555555555"};
