/* XPM */
static char * windowlabelufcs_xpm[] = {
"23 23 9 1",
" 	c #262626",
".	c #383838",
"+	c #1E1E1E",
"@	c #272727",
"#	c #282828",
"$	c #292929",
"%	c #2A2A2A",
"&	c #2B2B2B",
"*	c #252525",
"                       ",
".......................",
"+++++++++++++++++++++++",
"@@@@@@@@@@@@@@@@@@@@@@@",
"@@@@@@@@@@@@@@@@@@@@@@@",
"#######################",
"#######################",
"$$$$$$$$$$$$$$$$$$$$$$$",
"$$$$$$$$$$$$$$$$$$$$$$$",
"%%%%%%%%%%%%%%%%%%%%%%%",
"%%%%%%%%%%%%%%%%%%%%%%%",
"&&&&&&&&&&&&&&&&&&&&&&&",
"***********************",
"***********************",
"***********************",
"***********************",
"***********************",
"***********************",
"***********************",
"***********************",
"+++++++++++++++++++++++",
".......................",
"***********************"};
